<?xml version="1.0" encoding="utf-8"?>
<!-- Generator: Adobe Illustrator 27.0.0, SVG Export Plug-In . SVG Version: 6.00 Build 0)  -->
<svg version="1.1" id="レイヤー_1" xmlns="http://www.w3.org/2000/svg" xmlns:xlink="http://www.w3.org/1999/xlink" x="0px"
	 y="0px" viewBox="0 0 24 24" style="enable-background:new 0 0 24 24;" xml:space="preserve">
<style type="text/css">
	.st0{fill:#F1F1F1;}
	.st1{fill:#7B7B7B;}
</style>
<g id="レイヤー_1_00000093861990874221325100000002541165320922300848_">
	<g>
		<path class="st0" d="M21,24H3c-1.6,0-3-1.3-3-3V3c0-1.7,1.4-3,3-3h18c1.6,0,3,1.4,3,3v18C24,22.6,22.6,24,21,24z"/>
	</g>
</g>
<g id="レイヤー_3">
	<g>
		<g>
			<path class="st1" d="M9,4.4h1.3c0.2,0,0.4,0.1,0.4,0.3l5.6,14.2c0.1,0.3-0.1,0.6-0.4,0.6h-1.7c-0.2,0-0.4-0.1-0.4-0.3L10,9.5
				c-0.2-0.4-0.7-0.4-0.9,0l-3.6,9.7c-0.1,0.2-0.2,0.3-0.4,0.3H3.4c-0.3,0-0.6-0.3-0.4-0.6L8.6,4.7C8.6,4.6,8.8,4.4,9,4.4z M6,13.4
				h7.4c0.3,0,0.5,0.2,0.5,0.5v1.5c0,0.3-0.2,0.5-0.5,0.5H6c-0.3,0-0.5-0.2-0.5-0.5v-1.5C5.5,13.6,5.7,13.4,6,13.4z"/>
			<path class="st1" d="M19.7,19.5h-1.8c-0.3,0-0.5-0.2-0.5-0.5V6c0-0.3,0.2-0.5,0.5-0.5h1.8c0.3,0,0.5,0.2,0.5,0.5v13
				C20.2,19.3,20,19.5,19.7,19.5z"/>
		</g>
	</g>
</g>
</svg>
