<?xml version="1.0" encoding="utf-8"?>
<!-- Generator: Adobe Illustrator 25.0.1, SVG Export Plug-In . SVG Version: 6.00 Build 0)  -->
<svg version="1.1" id="Capa_1" xmlns="http://www.w3.org/2000/svg" xmlns:xlink="http://www.w3.org/1999/xlink" x="0px" y="0px"
	 viewBox="0 0 353.8 352.9" style="enable-background:new 0 0 353.8 352.9;" xml:space="preserve">
<path d="M353.5,335l-19.7-85.2c2.9-6.1,5.4-12.2,7.5-18.5h-0.5C378.2,121.4,299.4,5.8,183.1,0.2c0,0,0,0,0,0C83.1-4.4,0,75.7,0,175
	c0,96.4,78.4,174.9,174.7,175c26.1,0,51.2-5.7,74.6-16.7c91.2,18,87.4,19.7,89.5,19.7C348.3,352.9,355.3,344.3,353.5,335z
	 M120.5,197c-11,0-20-9-20-20s9-20,20-20s20,9,20,20S131.5,197,120.5,197z M174.5,197c-11,0-20-9-20-20s9-20,20-20s20,9,20,20
	S185.5,197,174.5,197z M228.5,197c-11,0-20-9-20-20s9-20,20-20s20,9,20,20S239.5,197,228.5,197z"/>
</svg>
