<?xml version="1.0" encoding="utf-8"?>
<!-- Generator: Adobe Illustrator 25.0.1, SVG Export Plug-In . SVG Version: 6.00 Build 0)  -->
<svg version="1.1" id="Layer_1" xmlns="http://www.w3.org/2000/svg" xmlns:xlink="http://www.w3.org/1999/xlink" x="0px" y="0px"
	 viewBox="0 0 451.8 512" style="enable-background:new 0 0 451.8 512;" xml:space="preserve">
<path d="M300.7,331.3h-14.6v-19c23.4-16.3,39.9-41.9,44.1-71.4h16.1c24.9,0,45.2-20.3,45.2-45.2v-30.1C391.5,74.3,317.2,0,225.9,0
	C134.5,0,60.2,74.3,60.2,165.6v30.1c0,24.9,20.3,45.2,45.2,45.2h16.1c4.2,29.5,20.7,55.1,44.1,71.4v19h-14.6
	C67.8,331.3,0,399.1,0,482.4v14.6c0,8.3,6.7,15.1,15.1,15.1h421.6c8.3,0,15.1-6.7,15.1-15.1v-14.6
	C451.8,399.1,384,331.3,300.7,331.3z M225.9,30.1c70.5,0,128.5,54,134.9,122.9c-4.5-1.5-9.4-2.4-14.5-2.4h-16.1
	c-7.3-51-51.3-90.4-104.3-90.4s-97,39.3-104.3,90.4h-16.1c-5.1,0-9.9,0.8-14.5,2.4C97.4,84.2,155.4,30.1,225.9,30.1L225.9,30.1z
	 M150.6,225.9v-60.2c0-41.5,33.8-75.3,75.3-75.3s75.3,33.8,75.3,75.3v45.2h-75.3c-8.3,0-15.1,6.7-15.1,15.1s6.7,15.1,15.1,15.1h73.8
	c-7,34.3-37.4,60.2-73.8,60.2C184.4,301.2,150.6,267.4,150.6,225.9z M225.9,331.3c10.5,0,20.6-1.5,30.1-4.4v19.4
	c0,16.6-13.5,30.1-30.1,30.1s-30.1-13.5-30.1-30.1v-19.4C205.3,329.8,215.4,331.3,225.9,331.3z"/>
</svg>
